<svg xmlns="http://www.w3.org/2000/svg" width="25" height="25" viewBox="0 0 25 25">
    <g transform="translate(-567 -1413)">
        <circle cx="12.5" cy="12.5" r="12.5" fill="#00467f" transform="translate(567 1413)"/>
        <path fill="#fff" d="M4.9 15.191q-.721-1.3-1.108-1.914l-.411-.643-.31-.473a13.7 13.7 0 0 0-2.11-2.61 1.9 1.9 0 0 1 1.17-.519 1.682 1.682 0 0 1 1.185.488 8.719 8.719 0 0 1 1.309 1.86 31.769 31.769 0 0 1 2.286-5.54 6.653 6.653 0 0 1 1.368-1.918 2.434 2.434 0 0 1 1.592-.492 6.532 6.532 0 0 1 1.3.163A12.462 12.462 0 0 0 7.988 7.4 56.835 56.835 0 0 0 4.9 15.191z" transform="translate(573.439 1416.17)"/>
    </g>
</svg>
