<?xml version="1.0" standalone="no"?>
<!DOCTYPE svg PUBLIC "-//W3C//DTD SVG 20010904//EN"
 "http://www.w3.org/TR/2001/REC-SVG-20010904/DTD/svg10.dtd">
<svg version="1.0" xmlns="http://www.w3.org/2000/svg"
 width="70.000000pt" height="70.000000pt" viewBox="0 0 70.000000 70.000000"
 preserveAspectRatio="xMidYMid meet">
<metadata>
Created by potrace 1.14, written by Peter Selinger 2001-2017
</metadata>
<g transform="translate(0.000000,70.000000) scale(0.100000,-0.100000)"
fill="#000000" stroke="none">
<path d="M0 350 l0 -350 350 0 350 0 0 350 0 350 -350 0 -350 0 0 -350z m533
243 c35 -5 37 -8 37 -43 0 -45 -10 -57 -24 -28 -21 42 -74 63 -156 62 -80 0
-118 -13 -157 -56 -84 -89 -67 -274 33 -357 95 -78 254 -76 291 4 l14 30 -6
-40 c-10 -61 -24 -70 -119 -73 -112 -5 -183 16 -241 69 -125 115 -99 340 48
416 61 31 152 36 280 16z m-29 -64 c3 -3 2 -25 -3 -50 -6 -30 -9 -36 -10 -17
-1 39 -35 58 -101 58 -92 0 -130 -44 -130 -150 0 -102 41 -169 117 -189 55
-15 94 -2 116 40 l18 34 -7 -40 c-8 -52 -14 -57 -72 -63 -126 -12 -212 68
-212 195 0 73 31 138 80 171 31 21 44 23 117 20 45 -2 84 -6 87 -9z"/>
</g>
</svg>
