<?xml version="1.0" encoding="UTF-8"?>
<!DOCTYPE svg PUBLIC "-//W3C//DTD SVG 1.1//EN" "http://www.w3.org/Graphics/SVG/1.1/DTD/svg11.dtd">
<svg xmlns="http://www.w3.org/2000/svg" xmlns:xlink="http://www.w3.org/1999/xlink">
<symbol id="checkmark" viewBox="0 0 25 25">
	<g transform="translate(-567 -1413)">
		<circle cx="12.5" cy="12.5" r="12.5" fill="#00467f" transform="translate(567 1413)"/>
		<path fill="#fff" d="M578.339 1431.361q-.721-1.3-1.108-1.914l-.411-.643-.31-.473a13.7 13.7 0 00-2.11-2.61 1.9 1.9 0 011.17-.519 1.682 1.682 0 011.185.488 8.719 8.719 0 011.309 1.86 31.769 31.769 0 012.286-5.54 6.653 6.653 0 011.368-1.918 2.434 2.434 0 011.592-.492 6.532 6.532 0 011.3.163 12.462 12.462 0 00-3.183 3.807 56.835 56.835 0 00-3.088 7.791z"/>
	</g>
</symbol>
<symbol id="down-arrow" viewBox="0 0 512 512">
	<path d="M509.121 125.966a9.821 9.821 0 00-13.893 0L256.005 365.194 16.771 125.966a9.821 9.821 0 00-13.893 0 9.821 9.821 0 000 13.893l246.18 246.175a9.819 9.819 0 0013.893 0l246.17-246.175a9.821 9.821 0 000-13.893z"/>
</symbol>
<symbol id="map-pin" viewBox="0 0 15.269 21.812">
	<path d="M7.634 0A7.629 7.629 0 000 7.634c0 5.726 7.634 14.178 7.634 14.178s7.634-8.452 7.634-14.178A7.629 7.629 0 007.634 0zm0 10.361a2.727 2.727 0 112.727-2.727 2.728 2.728 0 01-2.727 2.727z"/>
</symbol>
</svg>