<svg xmlns="http://www.w3.org/2000/svg" width="71.885" height="98.049" viewBox="0 0 71.885 98.049">
    <defs>
        <style>
            .cls-3{fill:#fff}
        </style>
    </defs>
    <g id="CCL_Logo_WH" transform="translate(-.04 .03)">
        <path id="Path_242" fill="#f49700" d="M170.993 145.557c-11.3 0-18.911-2.787-24.869-8.139-7.31-6.554-9.125-15.143-9.125-22.3a30.1 30.1 0 0 1 8.439-20.575c4.521-4.521 11.377-8.062 22.979-8.062a65.471 65.471 0 0 1 10.926.895 63.4 63.4 0 0 0 7.684 1.131c.83.075.98.376.98.828 0 .6-.227 1.508-.378 4.219-.15 2.487-.15 6.632-.227 7.761s-.225 1.582-.676 1.582c-.528 0-.6-.526-.6-1.582a10.429 10.429 0 0 0-3.165-7.684c-2.637-2.261-8.437-4.294-15.07-4.294-10.019 0-14.692 2.94-17.329 5.5-5.5 5.273-6.781 11.987-6.781 19.664 0 14.39 11.076 27.576 27.195 27.576 5.65 0 10.1-.678 13.109-3.766 1.583-1.659 2.562-4.974 2.789-6.33.15-.828.3-1.129.753-1.129.377 0 .526.528.526 1.129a78.153 78.153 0 0 1-1.657 9.645c-.451 1.431-.6 1.582-1.968 2.186-2.979 1.217-8.7 1.744-13.535 1.744" transform="translate(-129.873 -86.51)"/>
        <path id="Path_243" fill="#fdd7a7" d="M222.551 168.731c-7.216 0-12.073-2.093-15.871-6.11-4.666-4.922-5.82-11.373-5.82-16.75 0-3.791 1.106-10.411 5.385-15.447 2.888-3.4 7.264-6.054 14.671-6.054a35.349 35.349 0 0 1 6.978.678 35.728 35.728 0 0 0 4.908.85c.528.055.624.283.624.623 0 .453-.145 1.131-.242 3.169-.1 1.868-.1 4.979-.143 5.827s-.145 1.19-.433 1.19c-.336 0-.386-.4-.386-1.19a8.573 8.573 0 0 0-2.018-5.772c-1.684-1.7-5.387-3.22-9.62-3.22-6.4 0-9.38 2.206-11.062 4.131-3.512 3.959-4.33 9-4.33 14.767 0 10.808 7.071 20.711 17.363 20.711 3.607 0 6.441-.51 8.37-2.83a11.826 11.826 0 0 0 1.78-4.752c.1-.623.191-.848.479-.848.242 0 .338.4.338.848a68.212 68.212 0 0 1-1.059 7.242c-.288 1.073-.385 1.188-1.252 1.641-1.923.907-5.578 1.3-8.658 1.3" transform="translate(-182.308 -117.621)"/>
        <path id="Path_244" d="M105.55 481.307a8.58 8.58 0 0 1-5.951-1.873 6.54 6.54 0 0 1-2.21-5.2 6.919 6.919 0 0 1 2.043-4.786 7.555 7.555 0 0 1 5.512-1.88 17.436 17.436 0 0 1 2.609.206l.308.055a10.032 10.032 0 0 0 1.494.2c.224 0 .358.116.358.318a1.471 1.471 0 0 1-.02.263c-.02.122-.039.358-.063.716 0 .25-.013.583-.018.895 0 .392-.011.73-.021.87-.032.424-.225.488-.338.488-.276 0-.276-.313-.276-.5a2.077 2.077 0 0 0-.7-1.61 5.737 5.737 0 0 0-3.412-.92A4.808 4.808 0 0 0 99.4 474.1a6.111 6.111 0 0 0 6.273 6.083c1.37 0 2.185-.118 2.834-.768a3.2 3.2 0 0 0 .651-1.365c.038-.179.079-.358.315-.358.179 0 .3.2.3.379a18.07 18.07 0 0 1-.429 2.244.713.713 0 0 1-.526.59 11.05 11.05 0 0 1-3.265.4" class="cls-3" transform="translate(-97.35 -399.418)"/>
        <path id="Path_245" d="M177.79 481.315a6.7 6.7 0 0 1-7.09-6.888 6.961 6.961 0 0 1 7.192-6.847c4.294 0 7.169 2.646 7.169 6.584a7.058 7.058 0 0 1-7.271 7.156m0-12.817c-3.118 0-4.979 2.041-4.979 5.464 0 3.813 2.2 6.373 5.484 6.373.782 0 4.677-.274 4.677-5.686 0-4.255-2.6-6.156-5.181-6.156z" class="cls-3" transform="translate(-157.544 -399.427)"/>
        <path id="Path_246" d="M261.29 482.208c-1.252 0-2.26-.02-3.1-.061l-.519-.014c-.916-.023-1.546-.041-2.134 0-.388.021-.759.041-1.038.041-.347 0-.42-.15-.42-.276a.274.274 0 0 1 .277-.279 2.41 2.41 0 0 0 .513-.077c.236-.054.279-.268.358-.75v-.05a34.6 34.6 0 0 0 .1-3.7v-3.04c0-2.668 0-3.147-.041-3.689-.039-.571-.129-.759-.612-.825a5.682 5.682 0 0 0-.589-.039.3.3 0 0 1-.276-.277c0-.277.315-.277.419-.277.6 0 1.356.021 1.762.034h.258l.313-.009c.438-.011 1.252-.032 1.648-.032.347 0 .42.152.42.277a.283.283 0 0 1-.279.258c-.1 0-.358.016-.571.039-.4.077-.506.234-.546.844-.02.537-.02 1.02-.02 3.689v3.074c0 2.147.021 3.482.32 3.757.256.254.955.358 2.272.358.959 0 1.667-.034 2.04-.476a1.968 1.968 0 0 0 .406-.887c.036-.206.157-.335.317-.335.116 0 .256.07.256.4a11.151 11.151 0 0 1-.267 1.755c-.148.5-.3.564-1.263.564" class="cls-3" transform="translate(-225.785 -400.502)"/>
        <path id="Path_247" d="M302.89 481.091c-.735 0-1.569-.034-1.968-.052h-.234l-.3.013c-.435.018-1.163.048-1.544.048-.1 0-.417 0-.417-.276a.259.259 0 0 1 .276-.259 2.2 2.2 0 0 0 .492-.075c.252-.055.358-.261.426-.816.079-.7.079-2.023.079-3.7v-7.089l-2.428.038c-1.065.02-1.46.132-1.689.485a1.968 1.968 0 0 0-.225.42c-.018.041-.032.075-.05.111a.288.288 0 0 1-.3.238.272.272 0 0 1-.258-.279c0-.122.118-.664.274-1.358.054-.245.106-.478.111-.521l.02-.057c.091-.231.159-.381.3-.381a.663.663 0 0 1 .225.057 2.349 2.349 0 0 0 .58.145c.508.061 1.188.081 1.379.081h6.711a8.7 8.7 0 0 0 1.252-.081c.107-.014.2-.032.272-.047a1.609 1.609 0 0 1 .25-.036c.218 0 .218.236.218.338 0 .327-.021.911-.041 1.379-.011.279-.02.5-.02.581a.322.322 0 0 1-.3.358c-.24 0-.263-.267-.277-.426l-.02-.179c-.047-.408-.322-.789-2.011-.83l-2.081-.038v7.08c0 1.678 0 3 .081 3.7.061.51.129.726.571.791a6.865 6.865 0 0 0 .78.079.259.259 0 0 1 .277.279c0 .082-.041.276-.419.276" class="cls-3" transform="translate(-259.399 -399.427)"/>
        <path id="Path_248" d="M370.506 481.535c-1.1 0-1.968-.027-2.684-.048l-.419-.013c-.748-.041-1.218-.041-1.472-.041-.089 0-.408 0-.762.02-.467.029-.805.041-1.036.041-.347 0-.419-.15-.419-.276a.272.272 0 0 1 .276-.279 1.912 1.912 0 0 0 .318-.043c.075-.014.148-.029.213-.036.215-.039.259-.252.336-.732l.011-.066a35.2 35.2 0 0 0 .1-3.7v-3.033c0-2.668 0-3.147-.039-3.689-.041-.571-.129-.759-.612-.825a5.659 5.659 0 0 0-.58-.045.3.3 0 0 1-.276-.277c0-.277.315-.277.419-.277.6 0 1.378.021 1.789.034h4.51c.265-.016.517-.057.683-.082l.113-.018.059-.027a.5.5 0 0 1 .2-.055c.106 0 .218.077.218.3a.993.993 0 0 1-.039.218 3.332 3.332 0 0 0-.1.6c0 .063-.018.2-.029.358-.023.3-.047.649-.075.785s-.14.292-.293.292c-.084 0-.279-.036-.279-.358a1.742 1.742 0 0 0-.091-.557c-.084-.2-.179-.316-1.163-.44-.276-.038-2.161-.059-2.516-.059v4.761c.512 0 2.555 0 2.922-.039h.039c.378-.036.607-.057.748-.2l.072-.072c.106-.111.179-.19.288-.19s.236.073.236.277a1.146 1.146 0 0 1-.03.2 5.15 5.15 0 0 0-.111.76c-.039.344-.081.991-.081 1.1 0 .279-.116.46-.3.46a.261.261 0 0 1-.258-.3 1.374 1.374 0 0 0-.073-.519c-.036-.143-.088-.358-.8-.438-.46-.057-2.276-.081-2.657-.081v2.183c0 .81-.013 1.92 0 2.161.034 1.011.222 1.252 1.986 1.252a5.671 5.671 0 0 0 1.73-.179c.379-.166.621-.4.716-1.086.032-.156.079-.379.317-.379.1 0 .256.052.256.4a13.838 13.838 0 0 1-.247 1.694c-.147.537-.433.537-1.122.537" class="cls-3" transform="translate(-315.817 -399.829)"/>
        <path id="Path_249" d="M430.694 481.246c-.234 0-.4-.122-1.447-1.088-.179-.154-2.739-2.684-4.636-4.652s-3.612-3.793-4.365-4.607l.193 7.745c.041 1.453.213 1.739.583 1.832a4.032 4.032 0 0 0 .857.1.274.274 0 0 1 .277.279c0 .125-.081.276-.46.276-.725 0-1.285-.03-1.619-.048-.127 0-.215-.013-.259-.013a2.892 2.892 0 0 0-.3.014c-.32.018-.859.047-1.421.047-.127 0-.42 0-.42-.276a.274.274 0 0 1 .277-.279 2.6 2.6 0 0 0 .687-.095c.338-.091.41-.449.41-2.013v-9.84c0-.522.047-1.005.379-1.005.215 0 .447.222.707.488l.077.077c.093.093.431.451.943.989 1.059 1.111 2.829 2.97 4.679 4.875 1.141 1.181 2.326 2.439 3.194 3.358l.771.818-.179-8.262c-.021-1.181-.15-1.392-.556-1.467a5.608 5.608 0 0 0-.844-.079.274.274 0 0 1-.277-.3c0-.258.324-.258.479-.258.537 0 1.1.018 1.472.03.179 0 .32.011.388.011s.179 0 .331-.013c.281-.011.7-.029 1.184-.029.125 0 .46 0 .46.258a.333.333 0 0 1-.338.3 1.9 1.9 0 0 0-.4.038c-.449.093-.517.27-.517 1.363l-.03 10.058c0 1.159 0 1.369-.277 1.369" class="cls-3" transform="translate(-360.336 -399.459)"/>
        <path id="Path_250" d="M171.89 571.458a8.58 8.58 0 0 1-5.951-1.873 6.534 6.534 0 0 1-2.21-5.188 6.926 6.926 0 0 1 2.043-4.788 7.562 7.562 0 0 1 5.512-1.879 17.632 17.632 0 0 1 2.609.2l.311.059a10.225 10.225 0 0 0 1.49.2c.224 0 .358.115.358.317a1.46 1.46 0 0 1-.02.263c-.016.149-.039.358-.061.716 0 .252-.014.587-.02.895 0 .388-.011.725-.021.862-.032.424-.225.488-.338.488-.276 0-.276-.313-.276-.5a2.082 2.082 0 0 0-.7-1.61 5.726 5.726 0 0 0-3.414-.921 4.81 4.81 0 0 0-5.464 5.545 6.111 6.111 0 0 0 6.273 6.083c1.37 0 2.185-.118 2.836-.769a3.116 3.116 0 0 0 .649-1.363c.039-.179.079-.358.315-.358.179 0 .3.2.3.379a17.743 17.743 0 0 1-.435 2.26.711.711 0 0 1-.524.592 11.043 11.043 0 0 1-3.265.394" class="cls-3" transform="translate(-151.821 -473.448)"/>
        <path id="Path_251" d="M244.852 570.834c-1.018 0-2.018-.016-2.814-.043h-.131c-.358-.02-.628-.032-.628-.249a.227.227 0 0 1 .161-.227l.036-.016a.21.21 0 0 0 .115-.1.238.238 0 0 0-.016-.179l-1.6-3.936-.009-.018h-4.129c-.018 0-.034 0-.057.057l-1.009 2.725a3.4 3.4 0 0 0-.254 1.1c0 .288.293.331.471.331h.163c.293 0 .317.211.317.276s-.039.279-.4.279c-.254 0-.7-.021-1.061-.039-.247-.013-.454-.021-.537-.021s-.2 0-.379.016c-.372.016-.932.045-1.421.045-.318 0-.479-.095-.479-.279a.29.29 0 0 1 .3-.276 4.88 4.88 0 0 0 .506-.039c.716-.089 1.032-.592 1.388-1.494l4.185-10.753c.225-.574.329-.753.551-.753s.324.206.449.49c.029.066.061.138.1.213.157.358.895 2.168 1.746 4.267.916 2.258 1.956 4.818 2.523 6.171.657 1.558 1.124 1.707 1.431 1.8a2.434 2.434 0 0 0 .667.095c.209 0 .358.113.358.276 0 .1-.072.279-.537.279m-8.688-5.765h3.421l-1.737-4.652a.454.454 0 0 0-.025-.057.509.509 0 0 0-.023.059z" class="cls-3" transform="translate(-207.212 -473.045)"/>
        <path id="Path_252" d="M322.31 572.279h-1.11a3.8 3.8 0 0 1-1.968-.358 9.212 9.212 0 0 1-2.467-2.562c-.4-.5-.818-1.056-1.181-1.54-.3-.4-.564-.753-.739-.964-.048-.046-.054-.052-.138-.052l-2.249-.039v.41c0 1.667 0 2.984.081 3.684.063.537.163.728.592.791a6.291 6.291 0 0 0 .769.079.261.261 0 0 1 .277.279c0 .082-.041.277-.419.277-.755 0-1.621-.038-1.99-.054h-.281c-.3.014-1.211.057-1.673.057-.345 0-.419-.152-.419-.279a.272.272 0 0 1 .277-.277 2.4 2.4 0 0 0 .513-.077c.234-.054.279-.268.358-.746v-.052a34.647 34.647 0 0 0 .1-3.7v-3.04c0-2.669 0-3.149-.041-3.689-.039-.571-.129-.76-.61-.827a5.6 5.6 0 0 0-.589-.039.3.3 0 0 1-.276-.277c0-.277.313-.277.415-.277.6 0 1.4.023 1.832.034h.274l.619-.013c.537-.013 1.252-.029 1.61-.029a6.048 6.048 0 0 1 3.4.773 3.166 3.166 0 0 1 1.292 2.456 5.087 5.087 0 0 1-2.133 3.936l.179.227c1.333 1.666 2.483 3.106 3.448 4.115a3.149 3.149 0 0 0 1.9 1.152 3.2 3.2 0 0 0 .608.059.292.292 0 0 1 .3.279c0 .277-.358.277-.56.277m-9.806-12.3c-.054.03-.054.057-.054.075v5.518c0 .047.011.072.068.114a6.2 6.2 0 0 0 1.879.236 2.143 2.143 0 0 0 1.252-.281 2.973 2.973 0 0 0 1.011-2.516c0-2.029-1.1-3.24-2.938-3.24a7.914 7.914 0 0 0-1.218.093z" class="cls-3" transform="translate(-271.207 -474.49)"/>
        <path id="Path_253" d="M387.649 571.67c-1.09 0-1.968-.027-2.66-.048l-.437-.013c-.748-.041-1.218-.041-1.472-.041-.089 0-.408 0-.76.02-.454.027-.805.041-1.039.041-.345 0-.419-.15-.419-.277a.272.272 0 0 1 .277-.277 1.891 1.891 0 0 0 .318-.043c.075-.014.148-.029.211-.036.218-.039.261-.254.338-.737l.009-.059a34.656 34.656 0 0 0 .1-3.7v-3.031c0-2.669 0-3.149-.039-3.689-.039-.571-.129-.76-.612-.827a5.615 5.615 0 0 0-.589-.039.3.3 0 0 1-.276-.277c0-.277.315-.277.419-.277.6 0 1.378.021 1.789.034h.5c.515 0 1.778.009 2.757.009.716 0 1.129 0 1.252-.009.265-.016.519-.055.685-.082l.111-.018a.3.3 0 0 0 .061-.027.5.5 0 0 1 .2-.055c.036 0 .215.014.215.3a1 1 0 0 1-.038.218 3.334 3.334 0 0 0-.1.6c0 .064-.018.2-.03.358-.021.3-.046.644-.073.78a.343.343 0 0 1-.293.292c-.084 0-.277-.036-.277-.358a1.759 1.759 0 0 0-.091-.555c-.086-.2-.179-.32-1.165-.442-.27-.036-2.131-.057-2.514-.059a.321.321 0 0 0 0 .047v4.714c.521 0 2.555 0 2.923-.039h.039c.376-.036.6-.057.746-.2l.068-.072c.109-.111.179-.191.292-.191s.236.073.236.277a1.042 1.042 0 0 1-.032.2 5.453 5.453 0 0 0-.111.76c-.039.347-.079.991-.079 1.1 0 .279-.116.46-.3.46a.259.259 0 0 1-.256-.3 1.419 1.419 0 0 0-.072-.521c-.038-.14-.089-.358-.8-.437-.46-.057-2.274-.079-2.655-.081v2.183c0 .811-.011 1.92 0 2.161.036 1.013.224 1.252 1.986 1.252a5.671 5.671 0 0 0 1.73-.179c.379-.165.623-.4.716-1.086.029-.147.077-.379.317-.379.1 0 .258.052.258.4a13.884 13.884 0 0 1-.249 1.694c-.148.537-.433.537-1.12.537" class="cls-3" transform="translate(-329.89 -473.842)"/>
    </g>
</svg>
